<svg width="698" height="698" xmlns="http://www.w3.org/2000/svg" xmlns:xlink="http://www.w3.org/1999/xlink" xml:space="preserve" overflow="hidden"><g transform="translate(-37 25)"><path d="M429.625 317.863C423.917 315.456 417.808 314.144 411.615 313.995 400.658 313.995 393.271 319.303 393.271 328.77 393.271 342.824 409.55 360.761 429.625 368.759 435.332 371.169 441.442 372.481 447.635 372.627 458.592 372.627 465.979 367.32 465.979 357.853 465.979 343.798 449.7 325.898 429.625 317.863ZM447.635 358.086C443.291 357.95 439.012 356.99 435.027 355.257 419.155 348.91 408.467 335.793 407.863 329.082 409.077 328.704 410.345 328.531 411.615 328.573 415.959 328.713 420.236 329.673 424.223 331.402 440.095 337.749 450.79 350.873 451.394 357.62 450.172 357.98 448.9 358.138 447.628 358.086Z" fill="#EAEAEA"/><path d="M313.292 293.143C313.292 277.081 293.762 256.25 269.667 246.609 262.567 243.607 254.964 241.967 247.258 241.774 234.549 241.774 226.042 247.649 226.042 258.243 226.042 274.304 245.571 295.142 269.667 304.776 276.77 307.78 284.373 309.423 292.083 309.618 304.778 309.618 313.292 303.743 313.292 293.143ZM240.583 257.668C242.612 256.552 244.933 256.08 247.236 256.316 253.094 256.494 258.865 257.782 264.243 260.111 284.47 268.204 297.688 283.996 298.67 292.183 298.759 292.69 298.774 293.207 298.714 293.717 296.678 294.815 294.364 295.287 292.061 295.077 286.201 294.896 280.427 293.606 275.047 291.274 254.689 283.123 241.419 267.142 240.605 259.013 240.536 258.568 240.529 258.115 240.583 257.668Z" fill="#EAEAEA"/><path d="M346.01 357.126C337.133 353.374 327.63 351.322 317.996 351.077 302.109 351.077 291.479 358.42 291.479 371.668 291.479 391.75 315.895 417.786 346.01 429.834 354.887 433.59 364.39 435.641 374.025 435.884 389.912 435.884 400.542 428.54 400.542 415.293 400.542 395.254 376.119 369.174 346.01 357.126ZM374.025 421.342C366.242 421.09 358.574 419.39 351.413 416.332 325.427 405.942 306.021 384.181 306.021 371.668 306.021 367.654 310.049 365.618 317.996 365.618 325.779 365.874 333.446 367.573 340.608 370.628 366.58 381.018 386 402.779 386 415.293 386 419.306 381.965 421.342 374.018 421.342Z" fill="#EAEAEA"/><path d="M572.897 417.685C574.832 417.688 576.764 417.86 578.67 418.201 582.493 418.938 586.176 420.273 589.583 422.156L589.583 298.327C589.583 298.327 563.954 237.252 538.418 176.395 534.612 177.632 530.635 178.263 526.632 178.263 509.182 178.263 495.033 166.87 495.033 152.816 496.12 140.232 505.785 130.084 518.3 128.386 501.395 88.0396 488.068 56.2007 487.792 55.4081 459.977 50.232 431.742 47.6541 403.45 47.7083 312.121 47.7083 219.847 73.5634 153.333 120.14L153.333 421.96 589.583 600.146 589.583 483.573C587.691 483.918 585.771 484.094 583.847 484.096 582.104 484.099 580.364 483.945 578.648 483.638 560.143 479.905 546.612 463.969 545.929 445.103 545.331 430.567 556.629 418.298 571.165 417.699 571.742 417.675 572.32 417.67 572.897 417.685ZM403.45 62.25C428.227 62.2122 452.963 64.2429 477.402 68.3212 480.579 75.9555 486.854 90.9262 499.301 120.671 487.923 127.436 480.826 139.581 480.521 152.816 480.521 174.868 501.221 192.805 526.662 192.805 527.621 192.805 528.574 192.805 529.526 192.725 546.031 232.075 561.911 269.905 570.243 289.689 570.287 289.783 570.243 289.813 570.148 289.776L170.253 126.459C170.216 126.441 170.202 126.398 170.219 126.361 170.226 126.347 170.238 126.335 170.253 126.328 232.84 85.5167 317.123 62.25 403.45 62.25ZM575.042 497.773 575.042 578.479 167.875 412.195 167.875 141.204 575.042 307.51 575.042 403.194C574.315 403.158 573.588 403.143 572.86 403.143 550.328 402.781 531.768 420.753 531.406 443.285 531.396 443.889 531.399 444.492 531.417 445.096 532.039 470.626 550.074 492.404 575.042 497.773Z" fill="#EAEAEA"/></g></svg>