<svg width="698" height="698" xmlns="http://www.w3.org/2000/svg" xmlns:xlink="http://www.w3.org/1999/xlink" xml:space="preserve" overflow="hidden"><g transform="translate(-593 0)"><path d="M1251.74 581.667 967.448 87.25C956.542 67.6188 928.185 67.6188 917.279 87.25L632.263 581.667C621.356 601.298 635.171 625.292 657.71 625.292L942 625.292 1226.29 625.292C1248.83 625.292 1262.64 601.298 1251.74 581.667ZM920.188 203.583 963.812 203.583 963.812 458.062 920.188 458.062 920.188 203.583ZM942 559.854C921.642 559.854 905.646 543.858 905.646 523.5 905.646 503.142 921.642 487.146 942 487.146 962.358 487.146 978.354 503.142 978.354 523.5 978.354 543.858 962.358 559.854 942 559.854Z" fill="#EAEAEA"/></g></svg>