<svg width="370" height="370" xmlns="http://www.w3.org/2000/svg" xmlns:xlink="http://www.w3.org/1999/xlink" xml:space="preserve" overflow="hidden"><g transform="translate(-475 -23)"><path d="M660 304.354C621.458 304.354 590.625 273.521 590.625 234.979 590.625 196.438 621.458 165.604 660 165.604 698.542 165.604 729.375 196.438 729.375 234.979 729.375 273.521 698.542 304.354 660 304.354ZM582.917 181.021 536.667 181.021 536.667 150.188 582.917 150.188 582.917 181.021ZM798.75 119.354 721.667 119.354 698.542 80.8125 621.458 80.8125 598.333 119.354 521.25 119.354C512.771 119.354 505.833 126.292 505.833 134.771L505.833 319.771C505.833 328.25 512.771 335.188 521.25 335.188L798.75 335.188C807.229 335.188 814.167 328.25 814.167 319.771L814.167 134.771C814.167 126.292 807.229 119.354 798.75 119.354Z" fill="#EAEAEA"/><path d="M660 196.438C638.417 196.438 621.458 213.396 621.458 234.979 621.458 256.562 638.417 273.521 660 273.521 681.583 273.521 698.542 256.562 698.542 234.979 698.542 213.396 681.583 196.438 660 196.438ZM660 288.938C629.938 288.938 606.042 265.042 606.042 234.979 606.042 204.917 629.938 181.021 660 181.021 690.062 181.021 713.958 204.917 713.958 234.979 713.958 265.042 690.062 288.938 660 288.938Z" fill="#EAEAEA"/></g></svg>