<svg width="370" height="370" xmlns="http://www.w3.org/2000/svg" xmlns:xlink="http://www.w3.org/1999/xlink" xml:space="preserve" overflow="hidden"><g transform="translate(-517 0)"><path d="M771.375 240.885 770.99 317.969 633.396 317.969 632.625 240.885 771.375 240.885ZM610.271 341.094 793.729 341.094 794.115 217.76 609.5 217.76 610.271 341.094Z" fill="#EAEAEA"/><path d="M663.458 256.302 740.542 256.302 740.542 271.719 663.458 271.719Z" fill="#EAEAEA"/><path d="M663.458 287.135 740.542 287.135 740.542 302.552 663.458 302.552Z" fill="#EAEAEA"/><path d="M771.375 142.604 632.625 142.604 632.625 53.9583 717.417 53.9583 717.417 107.917 771.375 107.917 771.375 142.604ZM740.542 55.5 767.135 84.7917 740.542 84.7917 740.542 55.5ZM570.958 161.875C562.479 161.875 555.542 154.938 555.542 146.458 555.542 137.979 562.479 131.042 570.958 131.042 579.438 131.042 586.375 137.979 586.375 146.458 586.375 154.938 579.438 161.875 570.958 161.875ZM856.167 107.917 794.5 107.917 794.5 80.1667 749.406 30.8333 609.5 30.8333 609.5 107.917 547.833 107.917C539.354 107.917 532.417 114.854 532.417 123.333L532.417 277.5C532.417 285.979 539.354 292.917 547.833 292.917L594.083 292.917 594.083 204.271 809.917 204.271 809.917 292.917 856.167 292.917C864.646 292.917 871.583 285.979 871.583 277.5L871.583 123.333C871.583 114.854 864.646 107.917 856.167 107.917Z" fill="#EAEAEA"/></g></svg>