<svg width="370" height="370" xmlns="http://www.w3.org/2000/svg" xmlns:xlink="http://www.w3.org/1999/xlink" xml:space="preserve" overflow="hidden"><defs><clipPath id="clip0"><rect x="243" y="157" width="370" height="370"/></clipPath></defs><g clip-path="url(#clip0)" transform="translate(-243 -157)"><path d="M613 157 613 527 243 527 243 157 613 157M616.854 153.146 239.146 153.146 239.146 530.854 616.854 530.854 616.854 153.146Z" fill="#EAEAEA"/><path d="M416.669 210.958 416.669 268.039 449.236 268.039C448.695 285.633 434.271 299.613 416.669 299.604L416.669 324.078C447.829 324.082 473.226 299.08 473.71 267.923L473.71 267.923 473.71 210.958Z" fill="#EAEAEA"/><path d="M502.308 210.958 502.308 268.039 534.876 268.039C534.314 285.624 519.903 299.592 502.308 299.604L502.308 324.078C533.469 324.082 558.866 299.08 559.35 267.923L559.35 267.923 559.35 210.958Z" fill="#EAEAEA"/><path d="M439.331 473.042 439.331 415.961 406.764 415.961C407.305 398.367 421.729 384.387 439.331 384.396L439.331 359.806C408.171 359.802 382.774 384.805 382.29 415.961L382.29 415.961 382.29 473.042Z" fill="#EAEAEA"/><path d="M353.692 473.042 353.692 415.961 321.124 415.961C321.686 398.376 336.097 384.408 353.692 384.396L353.692 359.806C322.531 359.802 297.134 384.805 296.65 415.961L296.65 415.961 296.65 473.042Z" fill="#EAEAEA"/></g></svg>