<svg width="370" height="370" xmlns="http://www.w3.org/2000/svg" xmlns:xlink="http://www.w3.org/1999/xlink" xml:space="preserve" overflow="hidden"><g transform="translate(-694 -118)"><path d="M976.51 171.935 986.917 171.935 986.917 148.833 771.199 148.833 771.199 171.958 781.22 171.958C785.459 214.713 810.126 277.119 845.935 302.927 810.111 328.75 785.074 391.137 781.22 433.895L771.199 433.895 771.199 457.02 986.917 457.02 986.917 433.895 976.51 433.895C972.656 391.137 947.604 328.734 911.795 302.927 947.623 277.096 972.656 214.689 976.51 171.935ZM953.27 171.935C951.141 189.138 946.774 205.99 940.281 222.062L817.719 222.062C811.225 205.983 806.782 189.149 804.495 171.958ZM859.444 321.666C860.953 320.579 862.325 319.313 863.529 317.896L871.407 327.979 871.407 395.5 833.047 433.861 804.449 433.861C808.538 395.5 831.235 341.989 859.444 321.666ZM953.274 433.861 925.185 433.861 886.824 395.5 886.824 327.705 894.367 318.07C895.529 319.411 896.841 320.614 898.279 321.654 926.491 341.989 949.188 395.5 953.274 433.861Z" fill="#EAEAEA"/></g></svg>